# xmcd
#
# Track frame offsets:
#	150
#	16558
#	28177
#	41818
#	54679
#	63482
#	74599
#	87681
#	98967
#	108854
#	120329
#	133823
#	143549
#	152086
#	162805
#	171177
#	182182
#	190575
#
# Disc length: 2639 seconds
#
# Revision: 1
# Processed by: cddbd v1.4PL0 Copyright (c) Steve Scherf et al.
# Submitted via: audiograbber 1.80
#
DISCID=f70a4d12
DTITLE=RAMPASS - pumperluusig
DYEAR=1900
DGENRE=
TTITLE0=trad. nach Stump-Schmidig - Herzensbängeli
TTITLE1=Jost Ribary sen. - Zuger Kirsch
TTITLE2=Kasi Geisser - Die blonde Margrit
TTITLE3=Franz Schmidig sen. - Abfahrt vom Stoos
TTITLE4=Ueli Mooser - Kitschiger gaht's chum
TTITLE5=Res Schmid - Prisi-Stimmig
TTITLE6=Alois Betschart - Abendrot
TTITLE7=Kari Nauer - En Abig im Sunnehügel
TTITLE8=Rees Gwerder - Mütsche-Geist
TTITLE9=Josef Betschart sen. - Radio-Schottisch
TTITLE10=Leo Schelbert - Grossätti-Mazurka
TTITLE11=Sepp Huber sen. - Bim Schäfer Werni uf em Schliere
TTITLE12=Alois Föhn - Für d'Schwändi Agnes
TTITLE13=Alois Betschart - Uf em Seestern
TTITLE14=Franz Schmidig sen. - Grossvater's Pfiff
TTITLE15=Rees Gwerder - Im Wildiheu
TTITLE16=Toni Bürgler - Dr Toni spielt Schwyzerörgeli
TTITLE17=Toni Bürgler - Am Gäuerlerabig z'Schwyz
EXTD=
EXTT0=
EXTT1=
EXTT2=
EXTT3=
EXTT4=
EXTT5=
EXTT6=
EXTT7=
EXTT8=
EXTT9=
EXTT10=
EXTT11=
EXTT12=
EXTT13=
EXTT14=
EXTT15=
EXTT16=
EXTT17=
PLAYORDER=
